<svg id="Layer_1" viewBox="0 0 512 512" xmlns="http://www.w3.org/2000/svg" data-name="Layer 1"><path fill="#2396d2" d="m482.164 271.85c-1.59-1.122-3.626-1.403-5.463-.755l-75.875 26.891-37.082 13.499v-1.147c0-32.064-14.239-60.307-41.178-81.675-20.406-16.186-47.44-28.092-78.83-34.851 26.262-18.749 43.416-49.477 43.416-84.138 0-56.949-46.331-103.28-103.28-103.28s-103.309 46.329-103.309 103.279c0 34.663 17.161 65.392 43.432 84.141-31.384 6.759-58.414 18.664-78.816 34.848-26.939 21.368-41.179 49.611-41.179 81.675v87.534c0 3.312 2.684 5.995 5.995 5.995h139.989v45.368c0 2.54 1.6 4.804 3.994 5.651l141.137 49.976.002-.005c.626.222 1.297.349 1.999.349h40.422c.555 0 1.089-.081 1.599-.222l.228.625 65.514-23.877 75.827-26.845c2.394-.848 3.994-3.111 3.994-5.651v-172.488c0-1.947-.945-3.772-2.535-4.896zm-389.61-162.177c0-50.337 40.965-91.29 91.318-91.29s91.29 40.953 91.29 91.29-40.952 91.318-91.29 91.318-91.318-40.965-91.318-91.318zm59.966 162.177c-1.59 1.124-2.535 2.949-2.535 4.896v115.13h-133.995v-81.539c0-64.399 63.563-97.556 123.709-107.289 13.401 6.365 28.377 9.933 44.172 9.933s30.766-3.569 44.164-9.935c60.148 9.731 123.718 42.889 123.718 107.291v5.512l-13.575 4.941c-.21-.022-.424-.035-.641-.035h-39.39l-140.167-49.66c-1.837-.649-3.873-.368-5.462.755zm9.455 13.381 129.146 45.756v159.741l-129.146-45.73zm169.568 207.984h-28.432v-160.47h28.432zm141.166-48.218-71.885 25.449-57.291 20.88v-159.724l61.347-22.332 67.829-24.038v159.766zm-15.708-292.662c7.666-11.393 15.594-23.174 15.594-42.889 0-37.317-30.359-67.677-67.677-67.677s-67.677 30.36-67.677 67.677c0 19.716 7.936 31.497 15.609 42.89 6.891 10.229 13.397 19.898 14.835 35.885v21.174c0 6.493 3.822 12.095 9.325 14.719v7.76c0 9.12 7.42 16.54 16.54 16.54h22.763c9.12 0 16.54-7.42 16.54-16.54v-7.768c5.505-2.628 9.326-8.229 9.326-14.727l-.055-20.776c.007-.06.027-.115.032-.176 1.399-16.114 7.93-25.818 14.844-36.092zm-107.77-42.889c0-30.706 24.98-55.687 55.687-55.687s55.687 24.981 55.687 55.687c0 16.057-6.28 25.389-13.552 36.195-6.409 9.524-13.571 20.212-16.149 36.278l-9.757.009v-52.029c9.013-2.086 16.386-5.828 20.91-10.812 4.017-4.425 5.885-9.812 5.4-15.61-.823-9.322-6.258-16.801-13.854-19.055-4.404-1.301-8.608-.676-12.158 1.812-6.505 4.558-10.327 15.204-11.909 33.327-1.511.122-3.054.195-4.618.217-1.557-.022-3.092-.095-4.594-.216-1.601-18.142-5.426-28.791-11.921-33.336-3.545-2.481-7.743-3.105-12.147-1.803-7.514 2.229-13.079 9.896-13.85 19.069-.493 5.766 1.365 11.153 5.375 15.579 4.525 4.996 11.909 8.746 20.937 10.833v52.053l-9.749.009c-2.572-16.094-9.75-26.794-16.173-36.328-7.278-10.805-13.564-20.137-13.564-36.191zm34.767 104.272c-2.343 0-4.322-1.98-4.322-4.323v-15.44l50.473-.046.041 15.486c0 2.384-1.952 4.323-4.352 4.323zm25.158-31.78-8.448.008v-50.334c1.357.085 2.734.137 4.13.156h.16c1.404-.019 2.792-.071 4.158-.157v50.328zm12.647-64.62c1.827-16.641 5.363-20.454 6.522-21.265.191-.134.429-.301.904-.301.248 0 .562.046.968.166 2.71.804 4.945 4.426 5.312 8.584.206 2.471-.535 4.544-2.332 6.524-2.361 2.602-6.369 4.765-11.375 6.292zm-33.75.004c-5.013-1.527-9.025-3.695-11.386-6.301-1.79-1.976-2.525-4.043-2.313-6.516.35-4.166 2.584-7.777 5.306-8.585.41-.121.725-.167.974-.167.471 0 .705.164.895.296 1.155.808 4.683 4.612 6.525 21.273zm28.26 119.102h-22.763c-2.509 0-4.55-2.041-4.55-4.55v-6.166h31.862v6.166c0 2.509-2.041 4.55-4.55 4.55zm-17.391-208.928v-15.109c0-3.311 2.684-5.995 5.995-5.995s5.995 2.684 5.995 5.995v15.109c0 3.311-2.684 5.995-5.995 5.995s-5.995-2.684-5.995-5.995zm-47.728.869c-1.654-2.869-.67-6.535 2.198-8.189 2.868-1.656 6.535-.669 8.188 2.199l7.568 13.125c1.654 2.869.67 6.535-2.198 8.189-.943.544-1.974.802-2.989.802-2.073 0-4.09-1.076-5.199-3.001zm-35.52 29.56c1.652-2.869 5.317-3.856 8.187-2.204l13.096 7.54c2.87 1.652 3.856 5.318 2.204 8.188-1.109 1.927-3.126 3.004-5.201 3.004-1.015 0-2.043-.258-2.985-.8l-13.096-7.54c-2.87-1.652-3.856-5.318-2.204-8.188zm-13.812 51.521c0-3.311 2.684-5.995 5.995-5.995h15.138c3.312 0 5.995 2.684 5.995 5.995s-2.684 5.995-5.995 5.995h-15.138c-3.312 0-5.995-2.684-5.995-5.995zm138.847-73.937 7.54-13.125c1.648-2.871 5.311-3.864 8.185-2.212 2.871 1.649 3.861 5.314 2.212 8.185l-7.54 13.125c-1.108 1.93-3.127 3.01-5.204 3.01-1.013 0-2.039-.257-2.98-.798-2.871-1.649-3.861-5.314-2.212-8.185zm29.993 35.94c-1.652-2.87-.666-6.535 2.204-8.188l13.096-7.54c2.87-1.652 6.534-.665 8.187 2.204 1.652 2.87.666 6.535-2.204 8.188l-13.096 7.54c-.942.542-1.971.8-2.985.8-2.075 0-4.092-1.078-5.201-3.004zm37.298 37.998c0 3.311-2.684 5.995-5.995 5.995h-15.138c-3.312 0-5.995-2.684-5.995-5.995s2.684-5.995 5.995-5.995h15.138c3.312 0 5.995 2.684 5.995 5.995z"/></svg>