<svg id="Layer_3" enable-background="new 0 0 64 64" height="300" viewBox="0 0 64 64" width="300" xmlns="http://www.w3.org/2000/svg" version="1.1" xmlns:xlink="http://www.w3.org/1999/xlink" xmlns:svgjs="http://svgjs.dev/svgjs"><g width="100%" height="100%" transform="matrix(1,0,0,1,0,0)"><path d="m56 6c-1.889-.63-3.37-2.111-4-4-.63 1.889-2.111 3.37-4 4 1.889.63 3.37 2.111 4 4 .63-1.889 2.111-3.37 4-4z" fill="#2396d2" fill-opacity="1" data-original-color="#000000ff" stroke="none" stroke-opacity="1"/><path d="m14 8c-1.889-.63-3.37-2.111-4-4-.63 1.889-2.111 3.37-4 4 1.889.63 3.37 2.111 4 4 .63-1.889 2.111-3.37 4-4z" fill="#2396d2" fill-opacity="1" data-original-color="#000000ff" stroke="none" stroke-opacity="1"/><path d="m52 19.365v8.635l-2 2 3 6 3-6-2-2v-9.45l1.119-.456-24.119-8.04-24.119 8.04 24.119 9.826z" fill="#2396d2" fill-opacity="1" data-original-color="#000000ff" stroke="none" stroke-opacity="1"/><path d="m52 39.424v9.152c1.763-.774 3-2.531 3-4.576s-1.237-3.802-3-4.576z" fill="#2396d2" fill-opacity="1" data-original-color="#000000ff" stroke="none" stroke-opacity="1"/><path d="m14 51v4h43.09c.203-1.176.756-2.26 1.617-3.121l.879-.879z" fill="#2396d2" fill-opacity="1" data-original-color="#000000ff" stroke="none" stroke-opacity="1"/><path d="m35.5 37.02v-.02h.048l13.452-5.664v-8.589l-17 6.926v8.821z" fill="#2396d2" fill-opacity="1" data-original-color="#000000ff" stroke="none" stroke-opacity="1"/><path d="m50 49v-4h-43.09c-.203 1.176-.756 2.26-1.617 3.121l-.879.879z" fill="#2396d2" fill-opacity="1" data-original-color="#000000ff" stroke="none" stroke-opacity="1"/><path d="m57.09 57h-43.09v4h45.586l-.879-.879c-.861-.861-1.414-1.945-1.617-3.121z" fill="#2396d2" fill-opacity="1" data-original-color="#000000ff" stroke="none" stroke-opacity="1"/><path d="m30 38.494v-8.821l-17-6.926v8.589z" fill="#2396d2" fill-opacity="1" data-original-color="#000000ff" stroke="none" stroke-opacity="1"/><path d="m9 56c0 2.045 1.237 3.802 3 4.576v-9.152c-1.763.774-3 2.531-3 4.576z" fill="#2396d2" fill-opacity="1" data-original-color="#000000ff" stroke="none" stroke-opacity="1"/><path d="m6.91 43h43.09v-4h-14.047l-4.564 1.922c-.125.052-.257.078-.389.078s-.264-.026-.388-.078l-4.565-1.922h-21.633l.879.879c.861.861 1.414 1.945 1.617 3.121z" fill="#2396d2" fill-opacity="1" data-original-color="#000000ff" stroke="none" stroke-opacity="1"/></g></svg>