<svg id="Layer_5" enable-background="new 0 0 64 64" height="300" viewBox="0 0 64 64" width="300" xmlns="http://www.w3.org/2000/svg" version="1.1" xmlns:xlink="http://www.w3.org/1999/xlink" xmlns:svgjs="http://svgjs.dev/svgjs"><g width="100%" height="100%" transform="matrix(1,0,0,1,0,0)"><path d="m21.193 51.161c-.659-.373-1.297-.778-1.911-1.215-4.097 2.234-6.295 2.363-6.943 1.715s-.519-2.846 1.715-6.943c-.437-.615-.843-1.254-1.216-1.914-2.973 5.105-3.622 8.562-1.913 10.271.622.622 1.475.933 2.554.933 1.885-.001 4.47-.959 7.714-2.847z" fill="#2396d2" fill-opacity="1" data-original-color="#000000ff" stroke="none" stroke-opacity="1"/><path d="m42.804 12.838c.66.373 1.298.779 1.914 1.216 4.096-2.233 6.295-2.363 6.943-1.715s.519 2.845-1.715 6.943c.437.615.843 1.254 1.216 1.914 2.973-5.105 3.622-8.563 1.913-10.271-1.709-1.71-5.167-1.06-10.271 1.913z" fill="#2396d2" fill-opacity="1" data-original-color="#000000ff" stroke="none" stroke-opacity="1"/><path d="m32 35c0 1.103.897 2 2 2h1.755c.21-.207.421-.406.63-.615 1.123-1.123 2.199-2.255 3.24-3.385h-5.625c-1.103 0-2 .897-2 2z" fill="#2396d2" fill-opacity="1" data-original-color="#000000ff" stroke="none" stroke-opacity="1"/><path d="m51.949 33h-9.626c-1.188 1.334-2.439 2.67-3.744 4h2.421c2.206 0 4 1.794 4 4s-1.794 4-4 4h-2c-1.103 0-2 .897-2 2v4.342c8.299-2.148 14.508-9.488 14.949-18.342z" fill="#2396d2" fill-opacity="1" data-original-color="#000000ff" stroke="none" stroke-opacity="1"/><path d="m35 51.75v-4.75c0-2.206 1.794-4 4-4h2c1.103 0 2-.897 2-2s-.897-2-2-2h-4.431c-4.569 4.437-9.225 8.242-13.386 10.934 2.662 1.315 5.652 2.066 8.817 2.066 1.022 0 2.019-.101 3-.25z" fill="#2396d2" fill-opacity="1" data-original-color="#000000ff" stroke="none" stroke-opacity="1"/><path d="m49.92 23.206c-1.597 2.465-3.583 5.102-5.86 7.794h7.889c-.139-2.787-.862-5.419-2.029-7.794z" fill="#2396d2" fill-opacity="1" data-original-color="#000000ff" stroke="none" stroke-opacity="1"/><path d="m21.211 48.813c3.833-2.368 8.166-5.787 12.494-9.843-2.066-.154-3.705-1.865-3.705-3.97 0-2.206 1.794-4 4-4h7.422c2.979-3.403 5.506-6.741 7.378-9.768-3.553-5.54-9.741-9.232-16.8-9.232-4.482 0-8.61 1.5-11.949 4h8.949c2.206 0 4 1.794 4 4s-1.794 4-4 4h-7c-1.103 0-2 .897-2 2s.897 2 2 2h2c2.206 0 4 1.794 4 4s-1.794 4-4 4h-11.597c1.094 5.365 4.352 9.943 8.808 12.813zm17.142-33.66c2.864 1.081 5.427 2.895 7.411 5.248l-1.528 1.289c-1.765-2.092-4.043-3.705-6.589-4.666zm-4.236-1.03c.712.084 1.424.211 2.117.378l-.469 1.944c-.616-.148-1.249-.261-1.883-.336zm-12.679 29.897c.471.414.97.803 1.484 1.158l-1.136 1.646c-.578-.399-1.14-.837-1.668-1.302zm-6.162-5.352 1.857-.742c.232.582.501 1.155.799 1.704l-1.758.954c-.334-.618-.637-1.262-.898-1.916zm3.65 2.558c.362.512.757 1.007 1.175 1.471l-1.487 1.338c-.469-.522-.914-1.079-1.32-1.653z" fill="#2396d2" fill-opacity="1" data-original-color="#000000ff" stroke="none" stroke-opacity="1"/><path d="m22 22h7c1.103 0 2-.897 2-2s-.897-2-2-2h-11.259c-3.545 3.611-5.741 8.552-5.741 14 0 .675.036 1.342.101 2h11.899c1.103 0 2-.897 2-2s-.897-2-2-2h-2c-2.206 0-4-1.794-4-4s1.794-4 4-4z" fill="#2396d2" fill-opacity="1" data-original-color="#000000ff" stroke="none" stroke-opacity="1"/><path d="m13.397 56.8c.655.492 1.34.965 2.034 1.405l1.07-1.689c-.649-.412-1.29-.854-1.903-1.315z" fill="#2396d2" fill-opacity="1" data-original-color="#000000ff" stroke="none" stroke-opacity="1"/><path d="m57 42c-3.309 0-6 2.691-6 6 0 1.653.672 3.153 1.758 4.239-5.444 5.576-12.945 8.761-20.758 8.761-4.792 0-9.539-1.193-13.729-3.449l-.948 1.761c4.48 2.413 9.555 3.688 14.677 3.688 8.459 0 16.575-3.493 22.41-9.596.785.378 1.662.596 2.59.596 3.309 0 6-2.691 6-6s-2.691-6-6-6z" fill="#2396d2" fill-opacity="1" data-original-color="#000000ff" stroke="none" stroke-opacity="1"/><path d="m50.603 7.2c-.655-.492-1.34-.965-2.034-1.405l-1.07 1.689c.649.412 1.29.854 1.903 1.315z" fill="#2396d2" fill-opacity="1" data-original-color="#000000ff" stroke="none" stroke-opacity="1"/><path d="m13 16c0-1.653-.672-3.153-1.758-4.239 5.444-5.576 12.945-8.761 20.758-8.761 4.792 0 9.539 1.193 13.729 3.449l.948-1.761c-4.48-2.413-9.555-3.688-14.677-3.688-8.459 0-16.575 3.493-22.41 9.596-.785-.378-1.662-.596-2.59-.596-3.309 0-6 2.691-6 6s2.691 6 6 6 6-2.691 6-6z" fill="#2396d2" fill-opacity="1" data-original-color="#000000ff" stroke="none" stroke-opacity="1"/></g></svg>