<svg id="Layer_1" viewBox="0 0 128 128" xmlns="http://www.w3.org/2000/svg" data-name="Layer 1"><path fill="#2396d2" d="m5.99994 90.99927a2.00246 2.00246 0 0 1 -1.99994-1.99976v-63.99212a2.00246 2.00246 0 0 1 1.99994-1.99976h64.33887c.07813-.52271.16949-1.05585.278-1.60138a19.59228 19.59228 0 0 1 .65131-2.39813h-65.26818a6.00616 6.00616 0 0 0 -5.99994 5.99927v63.99212a6.0062 6.0062 0 0 0 5.99994 5.99927h45.81106l-4.29327-3.99951z"/><path fill="#2396d2" d="m53.99969 37.00592a2 2 0 0 0 -2-1.99976h-41.99975a1.99976 1.99976 0 1 0 0 3.99951h41.99975a2 2 0 0 0 2-1.99975z"/><path fill="#2396d2" d="m9.99994 47.00464h21.99988a1.99976 1.99976 0 1 0 0-3.99951h-21.99988a1.99976 1.99976 0 1 0 0 3.99951z"/><path fill="#2396d2" d="m9.99994 55.00366h31.99982a1.99976 1.99976 0 1 0 0-3.99951h-31.99982a1.99976 1.99976 0 1 0 0 3.99951z"/><path fill="#2396d2" d="m125.14771 61.98328a10.07681 10.07681 0 0 0 -5.48242-8.10345l-15.11914-7.58051c1.33978-1.85785 2.12885-4.67285 2.39362-8.58942l-.03613-.002.00311-.03625c.56268-1.27637 3.91968-9.23962 2.89728-15.20209a7.92228 7.92228 0 0 0 -3.16403-5.54421 6.12622 6.12622 0 0 0 -3.00287-1.01746c-1.72754-2.71161-4.35938-3.93115-9.60638-4.62445-10.7226-1.42267-17.83295 2.55536-19.49109 10.903-1.7724 8.91473 1.28668 14.0528 2.47559 15.647.124 2.62787.57843 6.30939 2.82477 8.93066l-14.00744 7.74939a10.01578 10.01578 0 0 0 -4.497 5.17908l-4.56445 11.9292-11.41013-10.18238a7.84462 7.84462 0 0 0 -11.10535.65619l-.27246.30853a7.94618 7.94618 0 0 0 .52734 11.01135l21.27231 19.81794a7.96935 7.96935 0 0 0 11.43451-.35254l1.95965-2.14636-2.09247 17.93933a1.99933 1.99933 0 0 0 1.75488 2.21753 1.88641 1.88641 0 0 0 .23438.01367 1.99979 1.99979 0 0 0 1.9834-1.76831l2.46405-21.12146-.68671-1.162a6.02607 6.02607 0 0 1 .46246-6.762l-1.33649-6.68164a1.99984 1.99984 0 0 0 -3.92187.7851l1.9375 9.68823-.00568.049-5.70714 6.25205a3.94346 3.94346 0 0 1 -2.8125 1.29474 3.98412 3.98412 0 0 1 -2.91309-1.14441l-21.30066-19.84428a3.92208 3.92208 0 0 1 -.25781-5.43585l.27246-.30853a3.84347 3.84347 0 0 1 5.44529-.32227l13.5741 12.11279a2.00068 2.00068 0 0 0 3.2002-.77722l5.60059-14.6369a6.00861 6.00861 0 0 1 2.69818-3.109l8.11255-4.48828a55.66813 55.66813 0 0 0 10.97444 17.36565l3.429-2.22876c-6.05438-5.9444-9.61389-13.91675-10.86829-17.09271l3.011-1.66577c.05591.0708.11548.14575.17035.21533 2.59375 3.28772 4.64154 5.885 9.45209 5.885 4.72943 0 6.77728-2.59729 9.371-5.885.16614-.21063.33954-.43.516-.65222l2.89508 1.4516a55.90289 55.90289 0 0 1 -7.74988 13.96283 5.86679 5.86679 0 0 1 4.27887.96393 59.94458 59.94458 0 0 0 7.06918-13.12267l9.44086 4.73352a6.04819 6.04819 0 0 1 3.28906 4.86761l2.81543 33.0799a5.99289 5.99289 0 0 1 -3.23828 5.86548l-22.00965 11.30235a3.85072 3.85072 0 0 1 -5.2392-1.785 3.87844 3.87844 0 0 1 1.31152-4.88708l17.7938-12.18009a1.999 1.999 0 0 0 .85645-1.88263l-1.99512-17.02423a1.99988 1.99988 0 0 0 -3.97266.46478l1.218 10.39337-8.96107-15.85168a2.00074 2.00074 0 0 0 -2.83105-.69232l-19.99988 12.99841a1.99945 1.99945 0 0 0 -.63184 2.694l12.99994 21.99731a1.91661 1.91661 0 0 0 .12073.1535 7.88116 7.88116 0 0 0 .47791 5.53137 7.83483 7.83483 0 0 0 10.67959 3.62843l22.00964-11.30237a9.97846 9.97846 0 0 0 5.3974-9.76343zm-24.04871-17.75367c-1.1123 1.25085-2.01855 2.39911-2.81836 3.41266-2.55564 3.24085-3.57513 4.36173-6.31049 4.36173-2.6543 0-3.67383-1.12091-6.22949-4.36176-.79974-1.01355-1.706-2.1618-2.81732-3.41266-1.12347-1.26312-1.74548-3.3949-1.90625-6.49591 2.17975-2.38751 2.64764-5.62836 2.59082-8.15759 7.5224 2.12378 13.03015 1.24988 16.412.08008a12.30025 12.30025 0 0 0 2.909 8.04163c-.32143 4.23873-1.27968 5.91274-1.82991 6.53182zm2.92871-14.80481a3.66337 3.66337 0 0 0 -1.50293-3.11877 3.84378 3.84378 0 0 0 -3.5957-.50677c-2.83691 1.03113-7.65717 1.84155-14.50671-.14941a3.7868 3.7868 0 0 0 -3.39453.65228 3.7271 3.7271 0 0 0 -1.42773 3.07971 10.30917 10.30917 0 0 1 -.53027 3.99561c-.83691-2.02905-1.59277-5.4505-.60645-10.4118 1.25-6.29419 6.34766-7.96973 11.42181-7.96973a27.84823 27.84823 0 0 1 3.62109.25189c5.42963.71869 6.33392 1.8299 7.17963 3.57477a2.05261 2.05261 0 0 0 2.19824 1.08875 2.2527 2.2527 0 0 1 1.56445.36029 4.479 4.479 0 0 1 1.412 2.87366c.50488 2.94006-.42767 6.75214-1.32513 9.492a8.11594 8.11594 0 0 1 -.50777-3.21248zm-12.24347 73.77057-11.08746-18.76172 16.60827-10.79455 10.47467 18.52856-15.23828 10.43079a8.01923 8.01923 0 0 0 -.7572.59692z"/></svg>