<svg id="Layer_1" enable-background="new 0 0 66 66" height="300" viewBox="0 0 66 66" width="300" xmlns="http://www.w3.org/2000/svg" version="1.1" xmlns:xlink="http://www.w3.org/1999/xlink" xmlns:svgjs="http://svgjs.dev/svgjs"><g width="100%" height="100%" transform="matrix(1,0,0,1,0,0)"><g><g><g><g><g style="fill:none;stroke:#000;stroke-width:1.5;stroke-linecap:round;stroke-linejoin:round;stroke-miterlimit:10"><path d="m53.1 13.4h2.7c2.2 0 3.9 1.8 3.9 3.9v36.4c0 2.2-1.8 3.9-3.9 3.9h-45.7c-2.2 0-3.9-1.8-3.9-3.9v-36.4c0-2.2 1.8-3.9 3.9-3.9h15.8" fill="none" fill-opacity="1" stroke="#2396d2" stroke-opacity="1" data-original-stroke-color="#000000ff" stroke-width="2" data-original-stroke-width="2"/><path d="m52.6 18.2h2.5v31.3h-44.2v-31.3h14" fill="none" fill-opacity="1" stroke="#2396d2" stroke-opacity="1" data-original-stroke-color="#000000ff" stroke-width="2" data-original-stroke-width="2"/><path d="m27.5 57.7c.2 6.2-2.3 6.3-2.3 6.3h15.7s-2.6-.1-2.3-6.3" fill="none" fill-opacity="1" stroke="#2396d2" stroke-opacity="1" data-original-stroke-color="#000000ff" stroke-width="2" data-original-stroke-width="2"/><circle cx="33" cy="53.6" r="1.7" fill="none" fill-opacity="1" stroke="#2396d2" stroke-opacity="1" data-original-stroke-color="#000000ff" stroke-width="2" data-original-stroke-width="2"/></g></g></g></g><g style="fill:none;stroke:#000;stroke-width:1.5;stroke-linecap:round;stroke-linejoin:round;stroke-miterlimit:10"><g><path d="m24.5 32h-7.2c-.7 0-1.3-.6-1.3-1.3 0-.7.6-1.3 1.3-1.3h7.2z" fill="none" fill-opacity="1" stroke="#2396d2" stroke-opacity="1" data-original-stroke-color="#000000ff" stroke-width="2" data-original-stroke-width="2"/><path d="m16 30.8v-7.2c0-1.2 1-2.2 2.2-2.2h6.3v8.1" fill="none" fill-opacity="1" stroke="#2396d2" stroke-opacity="1" data-original-stroke-color="#000000ff" stroke-width="2" data-original-stroke-width="2"/></g><g><path d="m24.5 46.2h-7.2c-.7 0-1.3-.6-1.3-1.3 0-.7.6-1.3 1.3-1.3h7.2z" fill="none" fill-opacity="1" stroke="#2396d2" stroke-opacity="1" data-original-stroke-color="#000000ff" stroke-width="2" data-original-stroke-width="2"/><path d="m16 44.9v-7.2c0-1.2 1-2.2 2.2-2.2h6.3v8.1" fill="none" fill-opacity="1" stroke="#2396d2" stroke-opacity="1" data-original-stroke-color="#000000ff" stroke-width="2" data-original-stroke-width="2"/></g><g><path d="m28.7 32h19.6" fill="none" fill-opacity="1" stroke="#2396d2" stroke-opacity="1" data-original-stroke-color="#000000ff" stroke-width="2" data-original-stroke-width="2"/><path d="m28.7 26.7h12.6" fill="none" fill-opacity="1" stroke="#2396d2" stroke-opacity="1" data-original-stroke-color="#000000ff" stroke-width="2" data-original-stroke-width="2"/></g><g><path d="m28.7 46.3h19.6" fill="none" fill-opacity="1" stroke="#2396d2" stroke-opacity="1" data-original-stroke-color="#000000ff" stroke-width="2" data-original-stroke-width="2"/><path d="m28.7 41.1h12.6" fill="none" fill-opacity="1" stroke="#2396d2" stroke-opacity="1" data-original-stroke-color="#000000ff" stroke-width="2" data-original-stroke-width="2"/></g></g><g><g><g><path d="m29 8.1 13.5-6.1 13.5 6.1" style="stroke-linecap: round; stroke-linejoin: round; stroke-miterlimit: 10;" fill="none" fill-opacity="1" stroke="#2396d2" stroke-opacity="1" data-original-stroke-color="#000000ff" stroke-width="2" data-original-stroke-width="2"/></g><g><path d="m29 8.1 13.5 6.2 13.5-6.2" style="stroke-linecap: round; stroke-linejoin: round; stroke-miterlimit: 10;" fill="none" fill-opacity="1" stroke="#2396d2" stroke-opacity="1" data-original-stroke-color="#000000ff" stroke-width="2" data-original-stroke-width="2"/></g><g style="fill:none;stroke:#000;stroke-width:1.5;stroke-linecap:round;stroke-linejoin:round;stroke-miterlimit:10"><path d="m35.2 10.9v3.8c0 3.1 2.5 5.7 5.7 5.7h3.3c3.1 0 5.7-2.5 5.7-5.7v-3.8" fill="none" fill-opacity="1" stroke="#2396d2" stroke-opacity="1" data-original-stroke-color="#000000ff" stroke-width="2" data-original-stroke-width="2"/><path d="m30.3 8.7v9.6" fill="none" fill-opacity="1" stroke="#2396d2" stroke-opacity="1" data-original-stroke-color="#000000ff" stroke-width="2" data-original-stroke-width="2"/></g></g><circle cx="30.3" cy="20.8" r="2.5" style="stroke-linecap: round; stroke-linejoin: round; stroke-miterlimit: 10;" fill="none" fill-opacity="1" stroke="#2396d2" stroke-opacity="1" data-original-stroke-color="#000000ff" stroke-width="2" data-original-stroke-width="2"/></g></g></g></svg>