<svg id="Layer_1" viewBox="0 0 512 512" xmlns="http://www.w3.org/2000/svg" data-name="Layer 1"><path fill="#2396d2" d="m511.358 407.841-41.583-155.106a18.469 18.469 0 0 0 -21.961-13.106l-16.348 3.871a68.73 68.73 0 0 0 -58.654-49.494c1.047-1.068 2.067-2.183 3.043-3.367 9.676-11.745 14.791-28.237 14.791-47.693a49.209 49.209 0 0 0 -93.909-20.6 67.982 67.982 0 0 0 -9.336-1.666c1.047-1.067 2.067-2.181 3.042-3.365 9.681-11.745 14.8-28.238 14.8-47.694a49.237 49.237 0 0 0 -98.474 0c0 19.456 5.117 35.949 14.8 47.694.976 1.184 2 2.3 3.043 3.365a67.982 67.982 0 0 0 -9.336 1.666 49.227 49.227 0 0 0 -93.938 20.6c0 19.456 5.117 35.949 14.8 47.694.977 1.186 2 2.3 3.049 3.371a69.253 69.253 0 0 0 -58.855 50.2l-16.138-3.811a18.473 18.473 0 0 0 -21.961 13.1l-41.591 155.135a17.834 17.834 0 0 0 2.132 14.342 17.879 17.879 0 0 0 11.926 8.36l33.961 7a18.384 18.384 0 0 0 21.469-13.237l1.479-5.52 28.922 5.97a24.643 24.643 0 0 0 6.488 23.06c.143.144.293.281.447.411a24.386 24.386 0 0 0 16.962 6.795h.028a24.454 24.454 0 0 0 15.933-5.834 24.7 24.7 0 0 0 33.86 14.15 24.621 24.621 0 0 0 40.818 11.015 24.612 24.612 0 0 0 40.609 9.28l3.855-3.844c41.759-3.766 100.2-22.317 134.324-51.356l46.749-9.649q.636 2.381 1.274 4.759a18.34 18.34 0 0 0 21.44 13.236l33.985-7a18.4 18.4 0 0 0 14.055-22.732zm-93.533-161.1-3.744.887a18.388 18.388 0 0 0 -13.475 22.624q.507 1.893 1.015 3.786l-20.843 4.962c-49.654-21.481-85.749-30.66-116.531-29.3a54.811 54.811 0 0 1 53.069-42.088h48.243c24.09-.004 45.499 16.422 52.266 39.125zm-110.111-113.985c.015-.055.033-.109.046-.163a35.218 35.218 0 0 1 68.883 10.357c0 34.8-18.256 50.654-35.219 50.654s-35.219-15.851-35.219-50.654a35.109 35.109 0 0 1 1.509-10.194zm-86.943-63.136a35.233 35.233 0 1 1 70.466 0c0 34.8-18.264 50.654-35.233 50.654s-35.233-15.851-35.233-50.654zm-1.492 66.158a54.046 54.046 0 0 1 12.6-1.5h48.244a54.046 54.046 0 0 1 12.6 1.5 49.472 49.472 0 0 0 -.528 7.172c0 19.456 5.115 35.948 14.792 47.693.975 1.184 1.994 2.3 3.041 3.365a69.027 69.027 0 0 0 -54.026 37.632 69.029 69.029 0 0 0 -54.039-37.633c1.047-1.066 2.066-2.18 3.04-3.363 9.681-11.745 14.8-28.238 14.8-47.694a49.472 49.472 0 0 0 -.524-7.172zm-83.943 7.172a35.234 35.234 0 0 1 68.911-10.357c.014.054.032.108.047.163a35.109 35.109 0 0 1 1.506 10.194c0 34.8-18.264 50.654-35.233 50.654s-35.231-15.851-35.231-50.654zm11.112 64.658h48.244a54.786 54.786 0 0 1 53.443 43.826 120.792 120.792 0 0 0 -13.87 3.263c-.024.006-.049.008-.073.014l-102.119 24.443-21.481-5.118q.4-1.507.808-3.017a18.388 18.388 0 0 0 -13.482-22.632l-3.96-.939a55.009 55.009 0 0 1 52.49-39.84zm-86.556 201.592a7.43 7.43 0 0 0 -.208.769v.019q-1.537 5.748-3.079 11.5a4.321 4.321 0 0 1 -5.116 3.14l-33.965-7a4 4 0 0 1 -2.85-2.027 3.977 3.977 0 0 1 -.5-3.36l41.584-155.115a4.385 4.385 0 0 1 4.211-3.225 4.191 4.191 0 0 1 .983.117h.007l22.881 5.422.089.021 10.75 2.548a4.383 4.383 0 0 1 3.2 5.382q-10.315 38.523-20.639 77.043-8.676 32.382-17.348 64.766zm86.339 15.261-14.258 14.258a10.552 10.552 0 0 1 -7.517 3.094h-.013a10.476 10.476 0 0 1 -7.473-3.084c-.1-.1-.2-.194-.3-.287a10.672 10.672 0 0 1 .294-14.765l27.774-27.777a10.626 10.626 0 1 1 15.014 15.042l-13.3 13.294zm34.3 15.562c-.133.133-.258.271-.388.407l-8.966 8.975a10.636 10.636 0 0 1 -15.042-15.042l.226-.227 27.552-27.551a10.627 10.627 0 0 1 15.039 15.015l-18.227 18.244c-.065.062-.133.116-.196.179zm24.944 24.944a10.632 10.632 0 0 1 -15.216-14.85l17.8-17.818c.1-.089.2-.173.3-.268l9.858-9.885a10.636 10.636 0 0 1 15.041 15.042zm51.625-1.735-5.467 5.453c-.116.107-.227.219-.335.334l-5.515 5.5a10.654 10.654 0 0 1 -15.015 0 10.647 10.647 0 0 1 0-15.041l11.292-11.291a10.637 10.637 0 0 1 15.04 15.045zm15.32 1.649a24.568 24.568 0 0 0 -22.128-33.757 24.57 24.57 0 0 0 -35.145-23.675 24.649 24.649 0 0 0 -39.67-12.11 24.566 24.566 0 0 0 -40.642-9.339l-26.8 26.8-32.794-6.77q7.759-28.986 15.524-57.972 8.1-30.249 16.2-60.491l23.486 5.595a7 7 0 0 0 3.253 0l52.796-12.636c-11.942 9.312-24.407 21.006-38.011 35.5a7 7 0 0 0 -1.8 5.954c2 11.884 9.025 17.01 14.564 19.217 22.051 8.786 58.278-12.8 79.018-27.367 9.417 23.286 34.681 35.194 61.241 47.713 28.333 13.355 60.25 28.416 80.11 59.62-28.448 22.619-72.882 38.037-109.204 43.718zm121.8-50.026c-21.911-35.42-56.275-51.619-86.733-65.976-29.172-13.75-52.214-24.611-56.376-47.805a7 7 0 0 0 -11.1-4.357c-38.969 29.343-63.986 35.289-73.566 31.474a8.589 8.589 0 0 1 -5.1-5.368c61.582-64.768 104.464-78.721 216-30.054a7 7 0 0 0 4.422.393l23.493-5.6q8 29.863 16 59.727 7.869 29.368 15.733 58.737zm103.1.016a4.011 4.011 0 0 1 -2.829 1.987l-33.992 7a4.355 4.355 0 0 1 -5.084-3.146q-1.522-5.685-3.046-11.37c-.007-.024-.012-.049-.019-.073q-8.782-32.8-17.572-65.6-10.32-38.52-20.633-77.032a4.016 4.016 0 0 1 .49-3.41 3.92 3.92 0 0 1 2.693-1.979l33.731-7.994h.007a4.243 4.243 0 0 1 .983-.116 4.385 4.385 0 0 1 4.211 3.225l41.565 155.077a4.014 4.014 0 0 1 -.515 3.431z"/></svg>