<svg height="300" viewBox="0 0 96 96" width="300" xmlns="http://www.w3.org/2000/svg" version="1.1" xmlns:xlink="http://www.w3.org/1999/xlink" xmlns:svgjs="http://svgjs.dev/svgjs"><g width="100%" height="100%" transform="matrix(1,0,0,1,0,0)"><g id="Interview"><path d="m44.83 68.4a12.75 12.75 0 0 0 -3.67-2.07l2.14-9.62z" fill="#2396d2" fill-opacity="1" data-original-color="#000000ff" stroke="none" stroke-opacity="1"/><path d="m57.75 43.09 1 1.81h-7.28c.28-.11-.47.1 6.28-1.81z" fill="#2396d2" fill-opacity="1" data-original-color="#000000ff" stroke="none" stroke-opacity="1"/><path d="m78.63 44.9h-7.24l1-1.81c5.95 1.71 6 1.72 6.24 1.81z" fill="#2396d2" fill-opacity="1" data-original-color="#000000ff" stroke="none" stroke-opacity="1"/><path d="m90 70.9h-4.76c0-3-.26-.32 1.57-14.2z" fill="#2396d2" fill-opacity="1" data-original-color="#000000ff" stroke="none" stroke-opacity="1"/><path d="m70.39 40.78v1.74l-1.26 2.38h-8.13l-1.26-2.38v-1.74a16.2 16.2 0 0 0 10.65 0z" fill="#2396d2" fill-opacity="1" data-original-color="#000000ff" stroke="none" stroke-opacity="1"/><path d="m44.9 46.9c0 8.52-1.3-3.25 1.71 19.63h36.89l2.58-19.63zm20.15 13.87a3.05 3.05 0 1 1 3-3.05 3 3 0 0 1 -3 3.05z" fill="#2396d2" fill-opacity="1" data-original-color="#000000ff" stroke="none" stroke-opacity="1"/><path d="m83.24 68.53v2.37h-36c-.12-.17-.24-.31-.36-.47v-1.9z" fill="#2396d2" fill-opacity="1" data-original-color="#000000ff" stroke="none" stroke-opacity="1"/><path d="m94.8 72.9v23.18h-40.8c-5-22.44-4.61-21.3-5.53-23.18z" fill="#2396d2" fill-opacity="1" data-original-color="#000000ff" stroke="none" stroke-opacity="1"/><path d="m81.4 14.36v4.42h-1.13l-2-2.57a3.3 3.3 0 0 1 -.7-1.92l-.16-4.19a3.78 3.78 0 0 0 -4.25-3.62 63.72 63.72 0 0 1 -16.21 0 3.79 3.79 0 0 0 -4.22 3.62l-.15 4.19c-.06 1.35-.61 1.79-2.73 4.5h-1.08c-.1 0-.06.49-.06-4.42a14.34 14.34 0 0 1 6.4-11.95 1 1 0 0 0 .29-1.42 1 1 0 0 0 -1.4-.26 15.12 15.12 0 0 0 -2.66 2.26 14.34 14.34 0 0 1 -1.62-3.08h17.28a14.45 14.45 0 0 1 14.4 14.44z" fill="#2396d2" fill-opacity="1" data-original-color="#000000ff" stroke="none" stroke-opacity="1"/><path d="m48.79 25.42c0 1.62.15 1.49.05 1.49a3.07 3.07 0 0 1 -.05-6.13z" fill="#2396d2" fill-opacity="1" data-original-color="#000000ff" stroke="none" stroke-opacity="1"/><path d="m84.34 23.85a3.07 3.07 0 0 1 -3.07 3.06c-.1 0 0 .12 0-1.49v-4.64a3.08 3.08 0 0 1 3.07 3.07z" fill="#2396d2" fill-opacity="1" data-original-color="#000000ff" stroke="none" stroke-opacity="1"/><path d="m76.68 17.42a5.28 5.28 0 0 1 -1.13-3.08l-.16-4.18a1.76 1.76 0 0 0 -2-1.69c-.19 0-.37 0-.56.06 0 .1 0 0 .36 3.39a1 1 0 1 1 -2 .22l-.37-3.4a66.45 66.45 0 0 1 -14.11-.27 1.78 1.78 0 0 0 -2 1.69l-.15 4.18a5.28 5.28 0 0 1 -1.13 3.08l-2.64 3.36v4.64a14.27 14.27 0 0 0 28.53 0v-4.64zm-16.32 4a1 1 0 0 1 -2 0v-.63a1 1 0 0 1 2 0zm-2.45-2.42a1 1 0 0 1 0-2h2.9a1 1 0 0 1 0 2zm10.87 12.78a4.47 4.47 0 0 1 -7.43 0 1 1 0 0 1 .26-1.4 1 1 0 0 1 1.39.32 2.48 2.48 0 0 0 4.12 0 1 1 0 0 1 1.66 1.11zm3-10.32a1 1 0 1 1 -2 0v-.63a1 1 0 0 1 2 0zm.42-2.46h-2.9a1 1 0 0 1 0-2h2.9a1 1 0 0 1 0 2z" fill="#2396d2" fill-opacity="1" data-original-color="#000000ff" stroke="none" stroke-opacity="1"/><path d="m35.15 58.61a14.28 14.28 0 0 1 -17.19 0z" fill="#2396d2" fill-opacity="1" data-original-color="#000000ff" stroke="none" stroke-opacity="1"/><path d="m24.66 21.73h3.79c6.12 0 10.56 4.61 10.56 4.61a14.35 14.35 0 0 1 3.89 9.83v12.45a8 8 0 0 1 -8 8h-16.7a8 8 0 0 1 -8-8v-12.45a14.44 14.44 0 0 1 14.46-14.44z" fill="#2396d2" fill-opacity="1" data-original-color="#000000ff" stroke="none" stroke-opacity="1"/><path d="m51.91 96.08h-50.71l4.4-19.81a11.22 11.22 0 0 1 7.83-8.34l7.79-2.24h10.67l7.78 2.24a11.21 11.21 0 0 1 7.84 8.34z" fill="#2396d2" fill-opacity="1" data-original-color="#000000ff" stroke="none" stroke-opacity="1"/></g></g></svg>