<svg id="OBJECT" height="512" viewBox="0 0 512 512" width="512" xmlns="http://www.w3.org/2000/svg"><path fill="#2396d2" d="m477 156h-16v250.22a45.12 45.12 0 0 1 39.91 37.53 55.21 55.21 0 0 0 11.09-33.25v-219.5a35 35 0 0 0 -35-35z"/><path fill="#2396d2" d="m456.5 436a25.53 25.53 0 0 1 -25.5-25.5v-139.5h-431v140a55.06 55.06 0 0 0 55 55h401.5a15 15 0 0 0 0-30zm-161-35h-220a15 15 0 0 1 0-30h220a15 15 0 0 1 0 30zm60-60h-280a15 15 0 0 1 0-30h280a15 15 0 0 1 0 30z"/><path fill="#2396d2" d="m340.5 158.5h-29.2v10h29.2a4.8 4.8 0 0 0 4.8-4.79v-.42a4.8 4.8 0 0 0 -4.8-4.79z"/><circle fill="#2396d2" cx="214.5" cy="143.5" r="25"/><path fill="#2396d2" d="m340.5 118.5h-29.2v10h29.2a4.8 4.8 0 0 0 4.8-4.79v-.42a4.8 4.8 0 0 0 -4.8-4.79z"/><path fill="#2396d2" d="m431 81a35 35 0 0 0 -35-35h-361a35 35 0 0 0 -35 35v160h431zm-285.3 72.5a45 45 0 1 1 -90 0v-4.35a15 15 0 0 1 30 0v4.35a15 15 0 0 0 30 0v-35h-3a15 15 0 0 1 0-30h18a15 15 0 0 1 15 15zm68.8 45a55 55 0 1 1 55-55 55.06 55.06 0 0 1 -55 55zm160.8-74.79a34.62 34.62 0 0 1 -6.19 19.79 34.62 34.62 0 0 1 6.19 19.79v.42a34.84 34.84 0 0 1 -34.8 34.79h-44.2a15 15 0 0 1 -15-15v-80a15 15 0 0 1 15-15h44.2a34.84 34.84 0 0 1 34.8 34.79z"/></svg>