<svg id="Layer_1" height="300" viewBox="0 0 512 512" width="300" xmlns="http://www.w3.org/2000/svg" data-name="Layer 1" version="1.1" xmlns:xlink="http://www.w3.org/1999/xlink" xmlns:svgjs="http://svgjs.dev/svgjs"><g width="100%" height="100%" transform="matrix(1,0,0,1,0,0)"><path d="m63.445 398.01a12.252 12.252 0 0 1 -9.665-11.92v-266.331a12.2 12.2 0 0 1 12.189-12.189h35.982a177.946 177.946 0 0 0 30.458 188.69 116.909 116.909 0 0 1 -46.751 40.079 16 16 0 0 0 5.342 30.37q12.078 1.171 24.17 1.171a252.366 252.366 0 0 0 97.9-19.77 177.842 177.842 0 0 0 52.322 7.82c98.13 0 177.972-79.83 177.972-177.96a176.978 176.978 0 0 0 -14.533-70.4h17.2a12.206 12.206 0 0 1 12.189 12.189v266.331a12.22 12.22 0 0 1 -10.552 12.069c-.547.081-1.1.181-1.627.311h-380.907a15.357 15.357 0 0 0 -1.689-.46zm429.205.46h-4.221a43.856 43.856 0 0 0 1.792-12.38v-266.331a44.243 44.243 0 0 0 -44.19-44.19h-35.161a177.819 177.819 0 0 0 -290.961 0h-53.94a44.246 44.246 0 0 0 -44.19 44.19v266.331a43.8 43.8 0 0 0 1.8 12.38h-4.224a16 16 0 0 0 -16.006 16v40.76a56.837 56.837 0 0 0 56.766 56.77h391.765a56.841 56.841 0 0 0 56.771-56.77v-40.76a16 16 0 0 0 -16-16zm-183.15-291.191-51.167 98.691a16.008 16.008 0 0 0 14.208 23.37h51.209v12.08a16 16 0 0 0 32 0v-12.08h5.8a16 16 0 1 0 0-32h-5.8v-23.74a16 16 0 1 0 -32 0v23.738h-24.893l39.053-75.338a16 16 0 0 0 -28.41-14.721zm-53.4 18.78c-12.4-26.93-45.251-32.929-68.582-23.049-20.123 8.529-35.359 30.2-24.043 59.38a16 16 0 0 0 29.836-11.57c-2.217-5.721-3.934-13.84 6.694-18.341 9.429-4 22.849-2.119 27.033 6.961 5.5 11.949-1.877 20.58-34.317 40.17-16.057 9.7-31.227 18.861-37.406 32.07a15.921 15.921 0 0 0 -1.51 6.779v22.961a16 16 0 0 0 16 16h84.342a16 16 0 0 0 0-32h-68.34v-2.23c4.4-4.68 16.076-11.73 23.463-16.189 13.133-7.931 28.024-16.93 38.265-28.461 17.817-20.06 14.496-39.61 8.565-52.481z" fill="#2396d2" fill-rule="evenodd" fill-opacity="1" data-original-color="#ffc107ff" stroke="none" stroke-opacity="1"/></g></svg>