<svg viewBox="0 0 64 64" xmlns="http://www.w3.org/2000/svg" xmlns:xlink="http://www.w3.org/1999/xlink"><linearGradient id="linear-gradient" gradientUnits="userSpaceOnUse" x1="9" x2="55" y1="32" y2="32"><stop offset="0" stop-color="#2396d2"/><stop offset=".22" stop-color="#2396d2"/><stop offset=".57" stop-color="#2396d2"/><stop offset="1" stop-color="#2396d2"/></linearGradient><g id="File_Corrupt" data-name="File Corrupt"><path d="m12 35h-1a2 2 0 0 0 -2 2v2a2 2 0 0 0 2 2h1a3 3 0 0 0 0-6zm41 0h-1a3 3 0 0 0 0 6h1a2 2 0 0 0 2-2v-2a2 2 0 0 0 -2-2zm-13.25-25a8.56 8.56 0 0 0 -2.75-3.37 8.5 8.5 0 1 0 3.43 8 8.63 8.63 0 0 0 -.68-4.63zm1.25 20.69v3.87l6-2.25v-3.87zm0 0v3.87l6-2.25v-3.87zm0 0v3.87l6-2.25v-3.87zm0 0v3.87l6-2.25v-3.87zm0 0v3.87l6-2.25v-3.87zm11 2.31h1v-9.86a2 2 0 0 0 -2.85-1.81l-13.15 4.92v31.87l14.94-6.56a2 2 0 0 0 1.06-1.76v-6.8h-1a5 5 0 0 1 0-10zm-9.87 17.17-.74.32a.88.88 0 0 1 -.39.08 1 1 0 0 1 -.39-1.92l.74-.32a1 1 0 0 1 1.31.53 1 1 0 0 1 -.53 1.31zm5.26-2.25-2.33 1a1.09 1.09 0 0 1 -.39.08 1 1 0 0 1 -.4-1.92l2.34-1a1 1 0 1 1 .78 1.84zm.53-6.31a1 1 0 0 1 -.53 1.31l-6 2.57a.88.88 0 0 1 -.39.08 1 1 0 0 1 -.39-1.92l6-2.57a1 1 0 0 1 1.31.53zm-.22-7.43-6 2.25a2.11 2.11 0 0 1 -.7.13 2 2 0 0 1 -2-2v-3.87a2 2 0 0 1 1.3-1.87l6-2.25a2 2 0 0 1 2.7 1.87v3.87a2 2 0 0 1 -1.3 1.87zm-6.7.38 6-2.25v-3.87l-6 2.25zm0-3.87v3.87l6-2.25v-3.87zm0 0v3.87l6-2.25v-3.87zm0 0v3.87l6-2.25v-3.87zm-12 1.31v22h6v-22zm0-5v3h6v-3zm0 5v22h6v-22zm0 24v3h6v-3zm-15.15-34.67a2 2 0 0 0 -2.85 1.81v9.86h1a5 5 0 0 1 0 10h-1v6.8a2 2 0 0 0 1.06 1.76l14.94 6.56v-31.87z" fill="url(#linear-gradient)"/></g></svg>